<?xml version="1.0" encoding="UTF-8" standalone="no"?>
<svg
   xmlns:dc="http://purl.org/dc/elements/1.1/"
   xmlns:cc="http://creativecommons.org/ns#"
   xmlns:rdf="http://www.w3.org/1999/02/22-rdf-syntax-ns#"
   xmlns:svg="http://www.w3.org/2000/svg"
   xmlns="http://www.w3.org/2000/svg"
   xmlns:sodipodi="http://sodipodi.sourceforge.net/DTD/sodipodi-0.dtd"
   xmlns:inkscape="http://www.inkscape.org/namespaces/inkscape"
   width="1556.3496"
   height="2180.1475"
   viewBox="0 0 335.29 469.67615"
   version="1.1"
   id="svg44"
   sodipodi:docname="css3.svg"
   inkscape:version="1.0.1 (1.0.1+r75)">
  <metadata
     id="metadata50">
    <rdf:RDF>
      <cc:Work
         rdf:about="">
        <dc:format>image/svg+xml</dc:format>
        <dc:type
           rdf:resource="http://purl.org/dc/dcmitype/StillImage" />
        <dc:title></dc:title>
      </cc:Work>
    </rdf:RDF>
  </metadata>
  <defs
     id="defs48" />
  <sodipodi:namedview
     pagecolor="#ffffff"
     bordercolor="#666666"
     borderopacity="1"
     objecttolerance="10"
     gridtolerance="10"
     guidetolerance="10"
     inkscape:pageopacity="0"
     inkscape:pageshadow="2"
     inkscape:window-width="1264"
     inkscape:window-height="940"
     id="namedview46"
     showgrid="false"
     fit-margin-top="0"
     lock-margins="true"
     inkscape:zoom="0.1756"
     inkscape:cx="765.95367"
     inkscape:cy="946.62984"
     inkscape:window-x="67"
     inkscape:window-y="27"
     inkscape:window-maximized="0"
     inkscape:current-layer="svg44"
     fit-margin-left="0"
     fit-margin-right="0"
     fit-margin-bottom="0"
     inkscape:document-rotation="0" />
  <path
     d="m -101.646,-34.45344 h 538.584 v 538.583 h -538.584 z"
     fill="none"
     id="path2" />
  <path
     d="m 303.854,433.00056 -136.21,36.676 L 31.432,433.00056 0,92.47556 h 335.29 z"
     fill="#2062af"
     id="path4" />
  <path
     d="m 167.643,120.05756 v 320.367 l 0.308,0.084 110.229,-29.682 25.443,-290.769 z"
     fill="#3c9cd7"
     id="path6" />
  <path
     d="m 90.339002,42.44556 v -20.268 H 119.91 V -4.4e-4 H 68.161002 v 62.684 H 119.91 v -20.238 z M 173.105,22.17756 h 20.674 v -22.178 h -51.754 v 22.178 c 6.924,6.924 10.535,10.238 20.549,20.252 -5.854,0 -20.549,0.021 -20.549,0.02 v 20.234 h 51.754 v -20.238 z m 73.352,0 h 20.673 v -22.178 h -51.756 v 22.178 c 6.924,6.924 10.537,10.238 20.551,20.252 -5.852,0 -20.551,0.021 -20.551,0.02 v 20.234 h 51.757 v -20.238 z"
     id="path8" />
  <path
     d="m 167.522,205.20256 -97.489998,40.602 3.233,40.199 94.256998,-40.301 100.265,-42.868 4.157,-41.122 z"
     fill="#ffffff"
     id="path10" />
  <linearGradient
     id="a"
     gradientUnits="userSpaceOnUse"
     x1="-825.508"
     y1="1338.301"
     x2="-825.508"
     y2="1419.1021"
     gradientTransform="matrix(1,0,0,-1,944.28402,1624.3056)">
    <stop
       offset=".387"
       stop-color="#d1d3d4"
       stop-opacity="0"
       id="stop12" />
    <stop
       offset="1"
       stop-color="#d1d3d4"
       id="stop14" />
  </linearGradient>
  <path
     d="m 70.031002,245.80456 3.233,40.199 94.256998,-40.301 v -40.5 z"
     fill="url(#a)"
     id="path17"
     style="fill:url(#a)" />
  <linearGradient
     id="b"
     gradientUnits="userSpaceOnUse"
     x1="-724.552"
     y1="1378.6021"
     x2="-724.552"
     y2="1462.5909"
     gradientTransform="matrix(1,0,0,-1,944.28402,1624.3056)">
    <stop
       offset=".387"
       stop-color="#d1d3d4"
       stop-opacity="0"
       id="stop19" />
    <stop
       offset="1"
       stop-color="#d1d3d4"
       id="stop21" />
  </linearGradient>
  <path
     d="m 271.944,161.71356 -104.422,43.489 v 40.5 l 100.265,-42.868 z"
     fill="url(#b)"
     id="path24"
     style="fill:url(#b)" />
  <linearGradient
     id="c"
     gradientUnits="userSpaceOnUse"
     x1="-874.10303"
     y1="1302.2629"
     x2="-680.039"
     y2="1302.2629"
     gradientTransform="matrix(1,0,0,-1,944.28402,1624.3056)">
    <stop
       offset="0"
       stop-color="#e8e7e5"
       id="stop26" />
    <stop
       offset="1"
       stop-color="#fff"
       id="stop28" />
  </linearGradient>
  <path
     d="m 70.181002,245.80456 3.234,40.199 144.624998,0.461 -3.235,53.598 -47.59,13.398 -45.748,-11.551 -2.772,-33.268 H 76.187002 l 5.545,64.225 85.944998,25.412 85.479,-24.951 11.09,-127.523 z"
     fill="url(#c)"
     id="path31"
     style="fill:url(#c)" />
  <path
     d="M 167.522,245.80456 H 70.032002 l 3.233,40.199 94.256998,0.301 z m 0,107.528 -0.462,0.129 -45.742,-11.551 -2.772,-33.268 H 76.039002 l 5.544,64.225 85.938998,25.412 z"
     opacity="0.05"
     id="path33" />
  <linearGradient
     id="d"
     gradientUnits="userSpaceOnUse"
     x1="-883.03198"
     y1="1442.031"
     x2="-672.341"
     y2="1442.031"
     gradientTransform="matrix(1,0,0,-1,944.28402,1624.3056)">
    <stop
       offset="0"
       stop-color="#e8e7e5"
       id="stop35" />
    <stop
       offset="1"
       stop-color="#fff"
       id="stop37" />
  </linearGradient>
  <path
     d="M 61.252002,161.71356 H 271.944 l -4.157,41.122 H 66.334002 Z"
     fill="url(#d)"
     id="path40"
     style="fill:url(#d)" />
  <path
     d="M 167.522,161.71356 H 61.252002 l 5.082,41.122 H 167.522 Z"
     opacity="0.05"
     id="path42" />
</svg>
